<svg id="svg" version="1.1" xmlns="http://www.w3.org/2000/svg" xmlns:xlink="http://www.w3.org/1999/xlink" width="400" height="400" viewBox="0, 0, 400,400"><g id="svgg"><path id="path0" d="M227.976 137.629 C 203.160 139.686,190.000 152.030,190.000 173.252 C 190.000 191.138,198.709 200.466,223.547 209.185 C 246.855 217.368,251.932 221.104,251.713 229.909 C 251.356 244.218,227.421 248.510,200.265 239.134 C 194.426 237.118,195.255 236.394,190.992 247.234 C 186.669 258.226,186.598 257.513,192.200 259.340 C 218.586 267.947,250.109 265.820,263.825 254.506 C 276.895 243.726,279.721 221.064,269.656 207.748 C 263.744 199.926,258.506 196.870,238.200 189.397 C 216.836 181.533,210.537 175.140,215.182 166.035 C 219.960 156.670,241.495 155.077,260.575 162.677 C 265.450 164.618,264.665 165.557,270.025 151.370 C 272.505 144.804,272.506 144.667,270.100 143.462 C 261.335 139.075,242.314 136.441,227.976 137.629 M143.413 140.244 C 142.827 140.830,142.773 144.828,142.818 183.744 C 142.874 232.812,142.864 232.989,139.629 238.090 C 136.843 242.483,130.889 244.435,124.000 243.215 C 117.694 242.098,118.440 241.624,116.789 247.800 C 116.318 249.560,115.387 252.747,114.719 254.882 C 112.900 260.696,112.963 260.788,120.000 262.562 C 145.031 268.872,162.394 259.511,166.214 237.648 C 167.251 231.714,167.076 140.576,166.026 140.014 C 164.620 139.262,144.187 139.470,143.413 140.244 " stroke="none" fill="#44381b" fill-rule="evenodd"></path><path id="path1" d="M0.000 200.000 L 0.000 400.000 200.000 400.000 L 400.000 400.000 400.000 200.000 L 400.000 0.000 200.000 0.000 L 0.000 0.000 0.000 200.000 M206.000 4.130 C 207.545 4.670,229.629 17.194,260.400 34.979 C 288.890 51.447,323.720 71.566,337.800 79.690 C 368.912 97.641,369.357 97.970,371.810 104.800 C 372.892 107.812,373.275 288.428,372.209 293.023 C 370.200 301.686,372.403 300.060,327.800 325.802 C 286.360 349.719,261.846 363.874,232.000 381.122 C 204.344 397.104,204.116 397.209,198.142 396.663 C 193.831 396.269,191.924 395.289,163.400 378.821 C 126.998 357.805,127.165 357.901,79.000 330.115 C 28.273 300.850,31.222 302.816,28.118 296.187 L 27.000 293.800 26.897 200.814 C 26.784 99.706,26.654 106.206,28.874 101.855 C 31.363 96.976,28.922 98.545,79.200 69.512 C 203.339 -2.169,191.432 4.639,194.200 3.761 C 196.943 2.891,202.999 3.080,206.000 4.130 " stroke="none" fill="#fcfcfb" fill-rule="evenodd"></path><path id="path2" d="M195.800 5.353 C 192.633 6.203,192.293 6.380,178.498 14.341 C 171.294 18.498,149.830 30.887,130.800 41.872 C 111.770 52.857,82.631 69.664,66.046 79.222 C 30.236 99.860,30.136 99.937,28.819 108.058 C 28.095 112.517,28.269 289.118,29.001 292.570 C 30.574 299.995,30.505 299.944,67.692 321.416 C 210.861 404.084,193.775 394.607,199.600 394.581 C 205.361 394.555,201.535 396.564,258.600 363.606 C 286.540 347.469,312.100 332.709,315.400 330.806 C 371.797 298.285,366.361 301.805,369.156 296.000 L 370.600 293.000 370.600 199.800 L 370.600 106.600 369.334 103.928 C 366.514 97.975,376.003 103.886,284.012 50.784 C 196.996 0.555,202.713 3.499,195.800 5.353 M205.400 23.091 C 206.500 23.516,221.530 32.027,238.800 42.004 C 256.070 51.981,287.750 70.262,309.200 82.627 C 351.026 106.739,351.805 107.243,353.978 111.567 C 356.048 115.688,356.000 114.130,356.000 176.594 C 356.000 236.901,355.992 237.200,354.375 237.200 C 353.236 237.200,297.730 206.868,296.548 205.600 C 296.035 205.050,295.367 204.255,295.064 203.833 C 294.523 203.080,294.489 203.082,293.294 203.933 C 292.130 204.762,291.672 204.800,282.915 204.800 C 271.310 204.800,271.555 204.682,274.100 209.046 C 279.592 218.462,279.958 232.778,274.995 244.066 C 273.068 248.449,273.281 249.061,276.549 248.531 C 281.149 247.784,287.985 249.715,299.247 254.941 C 315.132 262.312,319.252 262.738,327.187 257.830 C 338.990 250.529,352.002 246.766,355.018 249.782 L 356.000 250.764 356.000 261.963 C 356.000 273.429,355.796 275.162,354.436 275.233 C 354.086 275.252,351.820 275.243,349.400 275.215 C 341.984 275.127,337.235 276.792,331.200 281.598 C 323.617 287.636,316.788 288.873,304.472 286.439 C 301.242 285.801,297.610 285.159,296.400 285.012 C 295.190 284.865,293.604 284.559,292.875 284.333 C 291.198 283.812,290.374 284.474,289.405 287.120 C 289.026 288.154,287.835 290.553,286.758 292.452 C 284.367 296.667,284.350 297.112,286.532 298.435 C 289.864 300.454,292.840 305.195,294.419 311.000 C 295.578 315.260,295.259 315.054,300.778 315.112 C 305.495 315.161,308.800 315.687,308.800 316.387 C 308.800 317.313,307.913 317.876,292.400 326.793 L 284.600 331.277 281.800 330.956 C 273.431 329.997,270.001 330.622,260.475 334.841 C 256.315 336.684,254.717 337.200,253.171 337.200 C 251.497 337.200,250.994 337.393,249.896 338.453 C 248.025 340.263,246.358 340.842,243.276 340.754 C 241.049 340.690,240.271 340.855,238.640 341.739 C 236.355 342.976,235.895 343.015,233.550 342.167 C 232.027 341.615,230.332 341.356,227.445 341.232 C 227.030 341.215,225.770 340.304,224.645 339.210 C 223.520 338.115,221.610 336.258,220.400 335.083 C 218.177 332.924,213.627 330.411,211.899 330.388 C 208.055 330.337,200.800 327.460,200.800 325.987 C 200.800 323.850,197.860 323.886,197.680 326.025 C 197.543 327.662,196.405 328.540,193.800 329.023 C 192.920 329.186,191.278 329.635,190.150 330.021 C 189.023 330.407,186.753 330.849,185.106 331.003 C 181.520 331.339,181.491 331.356,180.873 333.472 C 180.376 335.173,179.006 336.359,176.800 336.999 C 176.250 337.158,175.260 337.780,174.600 338.382 C 170.518 342.102,164.617 344.125,160.878 343.086 C 159.625 342.738,157.610 342.329,156.400 342.177 C 153.210 341.777,147.111 338.686,144.804 336.300 C 143.265 334.709,142.727 334.400,141.492 334.400 C 140.680 334.400,138.247 333.687,136.085 332.815 C 128.221 329.644,123.993 329.049,118.723 330.369 C 114.487 331.430,115.596 331.837,103.200 324.673 C 86.419 314.975,86.992 315.620,93.000 313.202 C 94.980 312.405,99.588 310.552,103.240 309.083 C 113.079 305.127,115.426 304.655,123.925 304.918 C 132.314 305.178,132.072 305.412,129.256 299.763 C 126.088 293.406,124.694 288.866,124.741 285.061 C 124.811 279.436,120.771 275.228,117.412 277.429 C 116.868 277.785,114.927 278.202,112.926 278.391 C 109.090 278.754,106.900 279.484,99.374 282.909 C 85.625 289.164,82.273 289.342,71.892 284.364 C 60.137 278.728,54.934 276.985,48.468 276.518 C 43.075 276.128,43.400 276.949,43.400 263.697 C 43.400 250.040,42.970 251.028,48.789 251.305 C 53.901 251.548,56.602 252.349,64.121 255.851 C 74.009 260.456,79.666 261.776,88.461 261.532 C 97.519 261.282,97.624 260.367,89.040 256.515 C 83.882 254.201,82.865 253.451,83.309 252.292 C 83.669 251.354,94.427 251.424,102.166 252.415 C 112.718 253.765,112.109 254.060,114.201 246.600 C 116.347 238.944,116.722 238.599,121.545 239.842 C 125.644 240.898,126.060 240.612,127.134 236.009 C 128.488 230.203,133.702 221.619,137.645 218.703 C 138.486 218.081,138.800 217.513,138.800 216.609 C 138.800 215.927,139.160 214.663,139.600 213.800 C 140.493 212.048,140.675 208.508,139.975 206.500 C 139.484 205.093,138.740 204.813,135.462 204.805 C 133.988 204.802,132.698 204.549,131.973 204.120 C 130.891 203.481,130.739 203.481,129.398 204.120 C 128.157 204.712,126.452 204.800,116.209 204.800 L 104.445 204.800 103.322 203.830 L 102.200 202.861 100.600 204.631 C 98.614 206.828,46.135 237.335,44.702 237.125 C 44.120 237.040,43.740 236.586,43.512 235.700 C 42.744 232.718,43.343 116.796,44.139 114.400 C 45.737 109.593,48.342 106.752,54.253 103.372 C 56.204 102.256,71.840 93.238,89.000 83.332 C 203.424 17.276,193.238 23.081,195.898 22.409 C 198.118 21.848,203.109 22.206,205.400 23.091 M172.263 61.470 C 171.970 61.763,173.528 63.600,174.070 63.600 C 174.251 63.600,174.400 63.276,174.400 62.880 C 174.400 61.651,173.003 60.730,172.263 61.470 M188.800 62.000 C 188.466 62.625,188.496 62.800,188.937 62.800 C 189.626 62.800,190.494 61.827,190.130 61.463 C 189.670 61.003,189.241 61.176,188.800 62.000 M222.900 61.465 C 222.345 61.689,222.204 63.200,222.738 63.200 C 223.273 63.200,224.430 61.764,224.134 61.468 C 223.837 61.170,223.632 61.170,222.900 61.465 M158.800 62.200 C 158.800 62.530,158.958 62.800,159.151 62.800 C 159.344 62.800,159.726 62.530,160.000 62.200 C 160.416 61.699,160.358 61.600,159.649 61.600 C 159.161 61.600,158.800 61.855,158.800 62.200 M206.571 62.209 C 207.393 62.830,207.852 62.732,207.416 62.027 C 207.271 61.792,206.848 61.606,206.476 61.613 C 205.883 61.624,205.894 61.697,206.571 62.209 M236.400 62.200 C 236.674 62.530,237.056 62.800,237.249 62.800 C 237.442 62.800,237.600 62.530,237.600 62.200 C 237.600 61.855,237.239 61.600,236.751 61.600 C 236.042 61.600,235.984 61.699,236.400 62.200 M174.157 71.033 C 174.291 71.381,174.400 71.741,174.400 71.833 C 174.400 71.925,174.676 72.000,175.014 72.000 C 175.504 72.000,175.542 71.839,175.200 71.200 C 174.695 70.256,173.804 70.113,174.157 71.033 M158.527 85.846 C 158.103 86.952,158.938 88.477,160.395 89.255 C 161.920 90.071,162.303 89.784,162.372 87.780 C 162.412 86.621,158.906 84.858,158.527 85.846 M235.926 86.014 C 234.077 86.990,233.900 87.285,234.387 88.566 C 235.096 90.431,238.000 88.592,238.000 86.278 C 238.000 85.008,237.863 84.991,235.926 86.014 M197.200 86.795 C 196.427 87.288,197.154 88.600,198.200 88.600 C 199.246 88.600,199.973 87.288,199.200 86.795 C 198.870 86.584,198.420 86.412,198.200 86.412 C 197.980 86.412,197.530 86.584,197.200 86.795 M196.600 93.600 C 195.230 94.508,174.253 94.797,168.640 93.985 C 165.276 93.499,165.393 93.384,165.997 96.582 C 166.562 99.577,166.497 99.526,168.073 98.200 L 169.261 97.200 182.283 97.200 C 194.882 97.200,195.350 97.228,196.688 98.054 L 198.070 98.908 199.608 98.043 C 201.200 97.149,225.133 96.928,228.651 97.775 C 229.890 98.074,229.907 98.057,230.396 96.017 C 230.989 93.545,230.991 93.548,228.989 94.013 C 225.480 94.826,201.140 94.482,199.690 93.599 C 198.085 92.620,198.080 92.620,196.600 93.600 M166.578 108.435 C 166.136 109.151,166.191 112.351,166.654 112.814 C 166.904 113.064,167.496 112.733,168.322 111.880 L 169.602 110.559 168.246 109.245 C 167.257 108.286,166.806 108.067,166.578 108.435 M196.664 109.445 L 195.537 110.491 196.643 111.645 C 198.018 113.080,198.379 113.083,199.727 111.676 L 200.803 110.553 199.680 109.476 C 198.291 108.146,198.069 108.143,196.664 109.445 M227.900 109.627 C 226.912 110.210,227.031 110.974,228.208 111.604 C 229.428 112.257,230.132 111.745,229.934 110.350 C 229.784 109.298,228.956 109.003,227.900 109.627 M114.080 112.080 C 113.312 112.848,113.508 113.102,115.000 113.276 C 115.850 113.375,116.400 113.267,116.400 113.000 C 116.400 112.433,115.567 111.600,115.000 111.600 C 114.758 111.600,114.344 111.816,114.080 112.080 M280.262 112.331 C 279.289 113.406,279.429 113.600,281.176 113.600 C 282.997 113.600,283.475 113.132,282.575 112.232 C 281.747 111.405,281.075 111.433,280.262 112.331 M106.160 120.160 C 103.714 122.606,104.570 124.883,107.163 122.830 C 108.847 121.496,108.960 121.239,108.548 119.700 C 108.220 118.475,107.755 118.565,106.160 120.160 M121.196 119.810 C 120.628 121.305,120.641 121.339,122.377 122.733 C 124.323 124.297,124.800 124.321,124.800 122.854 C 124.800 120.496,121.875 118.025,121.196 119.810 M273.133 119.900 C 271.143 122.054,271.381 123.719,273.550 122.821 C 275.272 122.107,275.716 121.437,275.404 120.016 C 275.073 118.510,274.448 118.477,273.133 119.900 M288.280 119.099 C 287.381 120.700,287.620 121.602,289.226 122.664 C 290.996 123.836,291.846 123.489,291.344 121.800 C 290.912 120.350,288.681 118.383,288.280 119.099 M166.337 129.500 C 166.162 132.527,166.571 133.531,167.598 132.602 C 168.865 131.455,168.981 130.444,167.968 129.366 C 166.794 128.116,166.415 128.147,166.337 129.500 M196.553 129.815 C 195.212 131.862,198.059 133.668,199.580 131.735 L 200.417 130.670 199.539 129.735 C 198.400 128.522,197.383 128.550,196.553 129.815 M228.179 130.024 C 227.421 130.861,227.421 130.880,228.182 131.436 C 229.222 132.197,229.499 132.149,229.814 131.155 C 230.261 129.747,229.135 128.967,228.179 130.024 M124.251 134.611 C 123.436 136.734,124.464 138.708,125.805 137.596 C 126.667 136.880,126.537 135.868,125.451 134.848 C 124.616 134.064,124.472 134.035,124.251 134.611 M166.129 135.040 C 165.846 135.778,166.814 136.546,167.350 136.010 C 167.786 135.574,167.386 134.400,166.800 134.400 C 166.566 134.400,166.264 134.688,166.129 135.040 M270.480 135.680 C 269.779 136.381,269.892 137.114,270.774 137.586 C 271.917 138.198,272.000 138.130,272.000 136.600 C 272.000 135.147,271.385 134.775,270.480 135.680 M135.600 137.138 C 135.600 137.324,135.960 137.802,136.400 138.200 C 137.181 138.907,137.200 138.899,137.200 137.862 C 137.200 137.067,136.999 136.800,136.400 136.800 C 135.960 136.800,135.600 136.952,135.600 137.138 M136.984 147.698 C 136.671 148.512,137.503 150.102,138.127 149.883 C 138.717 149.676,138.521 148.389,137.783 147.629 C 137.304 147.135,137.196 147.144,136.984 147.698 M104.960 156.618 C 104.598 158.059,105.598 160.021,107.153 160.923 C 108.384 161.636,108.400 161.635,108.400 160.796 C 108.400 160.329,108.598 159.578,108.839 159.127 C 109.343 158.185,109.074 157.844,106.714 156.438 L 105.227 155.552 104.960 156.618 M122.293 156.896 C 120.470 158.070,120.398 158.186,120.642 159.562 C 121.010 161.639,121.302 161.806,123.621 161.271 C 126.797 160.538,127.719 160.663,129.003 162.003 L 130.156 163.206 131.444 161.958 C 132.593 160.843,133.069 160.682,135.862 160.454 C 138.437 160.245,139.015 160.073,139.129 159.481 C 139.441 157.846,138.599 157.600,132.689 157.600 C 127.318 157.600,127.019 157.557,125.764 156.600 C 125.043 156.050,124.396 155.616,124.327 155.635 C 124.257 155.654,123.342 156.222,122.293 156.896 M289.111 156.987 C 287.039 158.181,287.052 158.149,287.924 159.849 L 288.706 161.374 290.153 159.927 C 292.570 157.510,291.829 155.419,289.111 156.987 M271.410 157.580 C 270.262 159.801,270.698 160.838,273.000 161.364 C 273.660 161.515,274.515 161.732,274.900 161.846 C 275.436 162.005,275.600 161.819,275.600 161.053 C 275.600 160.502,275.778 159.583,275.996 159.010 C 276.369 158.029,276.285 157.922,274.563 157.184 C 272.205 156.173,272.133 156.182,271.410 157.580 M171.042 158.492 C 169.501 160.873,170.495 165.200,172.583 165.200 C 173.202 165.200,173.832 165.711,174.553 166.800 C 175.204 167.785,175.920 168.400,176.416 168.400 C 177.463 168.400,178.073 170.014,177.919 172.376 L 177.800 174.200 174.627 174.231 C 171.766 174.259,171.415 174.348,171.064 175.135 C 170.507 176.383,170.546 176.393,176.236 176.527 C 182.345 176.671,183.831 177.182,182.814 178.791 C 182.506 179.278,181.416 179.360,176.621 179.257 C 170.140 179.117,169.790 179.260,170.981 181.564 C 171.627 182.813,172.164 183.105,172.580 182.433 C 172.867 181.968,177.144 181.986,177.433 182.453 C 177.836 183.106,178.738 182.800,179.935 181.603 C 180.900 180.638,181.359 180.452,182.307 180.641 C 185.398 181.260,186.069 176.150,183.299 173.088 C 182.830 172.570,182.654 171.753,182.714 170.374 L 182.800 168.400 180.986 168.400 C 179.540 168.400,178.991 168.193,178.286 167.381 C 177.799 166.821,176.755 165.696,175.968 164.881 C 172.686 161.488,173.494 160.631,179.993 160.613 C 184.576 160.601,184.913 160.654,185.599 161.500 C 186.997 163.226,188.644 161.684,188.331 158.943 L 188.200 157.800 179.915 157.692 C 171.684 157.585,171.625 157.590,171.042 158.492 M226.200 161.921 C 222.132 163.336,217.600 167.830,217.600 170.450 C 217.600 171.569,218.135 171.357,218.736 169.999 C 219.042 169.309,219.680 168.695,220.237 168.555 C 220.771 168.421,221.520 167.778,221.904 167.127 C 222.450 166.197,222.826 165.975,223.650 166.094 C 224.501 166.218,224.835 165.997,225.409 164.932 C 226.230 163.406,227.222 162.969,228.413 163.607 C 228.998 163.920,229.606 163.937,230.394 163.662 C 231.020 163.444,231.622 163.355,231.732 163.465 C 232.075 163.809,233.600 162.800,233.600 162.229 C 233.600 160.998,229.361 160.822,226.200 161.921 M236.000 162.400 C 236.000 162.840,236.161 163.200,236.357 163.200 C 236.807 163.200,237.226 162.160,236.906 161.839 C 236.424 161.358,236.000 161.620,236.000 162.400 M110.098 165.300 C 110.654 167.593,110.886 167.762,112.131 166.782 C 113.558 165.660,113.478 165.081,111.786 164.274 C 109.775 163.315,109.636 163.399,110.098 165.300 M284.432 164.506 C 283.060 165.206,282.989 165.843,284.196 166.634 C 285.398 167.422,285.799 167.154,286.190 165.300 C 286.496 163.848,286.085 163.662,284.432 164.506 M108.624 174.087 C 107.301 177.240,107.828 178.147,110.177 176.760 C 111.883 175.754,111.882 175.765,110.414 174.000 L 109.249 172.600 108.624 174.087 M224.013 173.384 C 223.727 173.729,222.863 174.003,222.051 174.006 C 219.219 174.018,218.815 175.767,221.539 176.223 C 224.441 176.708,225.681 177.249,225.484 177.943 C 225.382 178.304,225.231 178.858,225.149 179.173 C 224.976 179.839,226.624 180.757,228.553 181.070 C 230.048 181.312,230.384 180.738,230.395 177.926 C 230.405 175.168,229.802 174.273,228.144 174.584 C 226.926 174.813,226.531 174.692,225.612 173.812 C 224.650 172.890,224.465 172.840,224.013 173.384 M235.600 173.396 C 235.050 173.712,234.201 173.978,233.714 173.986 C 232.654 174.003,231.954 175.139,232.267 176.335 C 232.521 177.306,232.815 177.367,234.572 176.812 C 235.247 176.598,236.475 176.320,237.300 176.194 C 239.093 175.919,239.125 175.747,237.700 174.095 C 236.664 172.893,236.542 172.853,235.600 173.396 M265.082 173.976 C 263.719 175.596,263.727 175.877,265.149 176.189 C 268.008 176.817,268.875 175.939,267.282 174.030 L 266.163 172.691 265.082 173.976 M128.784 174.423 C 127.725 175.910,127.957 176.200,130.200 176.200 C 132.450 176.200,132.663 175.923,131.560 174.431 C 130.417 172.886,129.879 172.884,128.784 174.423 M285.862 174.331 C 284.892 175.403,285.051 176.112,286.435 176.900 C 288.072 177.832,288.400 177.785,288.400 176.619 C 288.400 174.158,287.089 172.976,285.862 174.331 M117.663 175.532 C 117.034 175.955,117.742 177.415,118.766 177.808 C 119.373 178.041,121.533 176.200,121.128 175.795 C 120.694 175.361,118.199 175.172,117.663 175.532 M250.043 175.565 C 249.482 175.920,250.802 178.400,251.552 178.400 C 252.398 178.400,254.173 175.954,253.593 175.587 C 252.844 175.114,250.776 175.101,250.043 175.565 M275.900 175.476 C 274.928 175.730,275.024 176.204,276.243 177.162 C 277.367 178.047,278.605 177.772,279.081 176.533 C 279.488 175.471,277.917 174.949,275.900 175.476 M104.814 190.374 C 103.553 192.729,104.515 194.142,106.443 192.769 L 107.610 191.938 106.778 190.769 C 105.803 189.400,105.381 189.315,104.814 190.374 M276.204 190.650 C 275.427 191.835,275.838 192.383,277.513 192.394 C 278.723 192.402,279.071 191.363,278.187 190.385 C 277.260 189.362,277.028 189.393,276.204 190.650 M290.014 190.374 C 289.380 191.558,289.514 192.295,290.489 192.977 C 291.752 193.862,292.000 193.763,292.000 192.374 C 292.000 191.027,291.383 189.600,290.800 189.600 C 290.595 189.600,290.242 189.948,290.014 190.374 M117.823 190.775 C 116.866 191.832,117.347 192.400,119.200 192.400 C 121.088 192.400,121.350 192.072,120.399 190.898 C 119.506 189.796,118.742 189.759,117.823 190.775 M177.600 191.800 C 177.326 192.130,176.809 192.401,176.451 192.403 C 176.093 192.404,175.265 192.758,174.610 193.190 C 173.561 193.881,173.318 193.908,172.564 193.413 C 171.788 192.905,171.661 192.939,171.214 193.773 C 170.288 195.504,170.788 196.194,173.005 196.251 C 174.102 196.278,175.759 196.610,176.686 196.988 C 179.056 197.954,179.361 197.731,179.447 194.971 C 179.548 191.705,178.777 190.382,177.600 191.800 M128.800 192.130 C 128.800 192.422,129.238 193.072,129.773 193.575 L 130.747 194.490 131.795 193.441 C 132.371 192.865,132.733 192.215,132.598 191.997 C 132.215 191.376,128.800 191.496,128.800 192.130 M265.091 192.036 C 264.422 192.426,264.432 192.521,265.260 193.684 L 266.138 194.917 266.869 194.014 C 267.649 193.051,267.839 192.000,267.233 192.000 C 267.031 192.000,266.626 191.915,266.333 191.811 C 266.040 191.707,265.481 191.808,265.091 192.036 M182.400 195.576 C 182.400 196.469,182.928 196.880,184.262 197.027 C 185.411 197.153,185.459 196.659,184.400 195.600 C 183.383 194.583,182.400 194.571,182.400 195.576 M170.941 201.023 C 171.108 202.243,170.994 203.319,170.596 204.272 C 169.857 206.040,169.800 208.800,170.503 208.800 C 171.106 208.800,173.085 205.630,173.441 204.094 C 173.580 203.492,174.303 202.424,175.047 201.720 C 177.196 199.688,176.906 199.200,173.546 199.200 L 170.691 199.200 170.941 201.023 M200.000 205.505 C 200.000 206.394,201.826 208.096,204.328 209.537 C 205.798 210.384,212.021 213.926,218.159 217.408 C 230.656 224.499,234.577 227.320,228.973 225.190 C 227.468 224.617,226.499 225.036,226.202 226.389 C 226.063 227.023,225.511 227.829,224.975 228.180 C 224.439 228.531,224.000 229.090,224.000 229.422 C 224.000 230.344,225.141 230.578,225.972 229.825 C 226.873 229.010,228.143 229.442,231.863 231.826 C 233.909 233.136,235.583 234.115,238.597 235.764 C 239.036 236.004,239.825 236.515,240.351 236.900 C 244.808 240.161,250.523 233.157,248.654 226.726 C 247.169 221.617,241.675 218.489,222.163 211.644 C 218.443 210.339,213.420 208.405,211.000 207.347 C 206.605 205.425,200.000 204.319,200.000 205.505 M241.066 224.627 C 241.399 225.496,240.553 226.313,239.947 225.707 C 239.435 225.195,239.752 224.000,240.400 224.000 C 240.634 224.000,240.933 224.282,241.066 224.627 M171.101 240.737 C 169.781 241.533,169.735 241.830,170.837 242.420 C 172.525 243.323,174.648 241.863,173.558 240.549 C 172.987 239.861,172.488 239.899,171.101 240.737 M165.656 248.874 C 163.350 252.994,161.583 255.538,159.204 258.163 C 157.882 259.622,156.800 261.041,156.800 261.316 C 156.800 262.097,161.167 262.783,163.251 262.330 C 164.213 262.121,165.810 261.804,166.800 261.625 C 167.790 261.447,169.313 260.918,170.185 260.450 C 171.056 259.983,172.007 259.600,172.297 259.600 C 173.661 259.600,172.015 254.953,168.054 247.624 C 167.432 246.472,166.822 246.790,165.656 248.874 M154.506 263.654 C 153.708 264.452,154.844 269.388,155.755 269.080 C 156.338 268.883,156.360 266.558,155.795 264.914 C 155.234 263.282,155.054 263.106,154.506 263.654 M264.642 263.720 C 263.905 264.258,264.284 266.000,265.138 266.000 C 265.889 266.000,266.874 264.879,266.739 264.178 C 266.553 263.215,265.613 263.010,264.642 263.720 M301.700 264.500 C 301.791 264.775,302.166 265.058,302.532 265.129 C 302.996 265.219,303.124 265.068,302.956 264.629 C 302.672 263.890,301.455 263.765,301.700 264.500 M140.965 269.043 C 141.111 270.037,143.068 271.092,143.663 270.497 C 144.034 270.126,143.977 269.838,143.409 269.209 C 142.514 268.221,140.828 268.106,140.965 269.043 M269.500 272.003 C 269.115 272.243,268.800 272.853,268.800 273.358 C 268.800 274.272,266.268 276.910,264.044 278.313 C 263.470 278.676,262.209 279.564,261.242 280.286 C 259.947 281.254,259.068 281.600,257.900 281.600 C 256.793 281.600,255.957 281.902,255.127 282.600 C 254.473 283.150,253.637 283.603,253.269 283.608 C 252.180 283.620,248.812 285.936,248.323 287.008 C 247.829 288.092,247.380 288.201,245.825 287.610 C 244.893 287.255,244.706 287.365,243.794 288.810 C 242.728 290.499,241.661 290.837,240.773 289.767 C 240.484 289.419,239.186 288.599,237.888 287.944 C 236.591 287.289,234.379 285.683,232.974 284.376 C 230.357 281.941,229.287 281.532,228.384 282.619 C 227.232 284.007,225.995 283.031,224.813 279.800 C 224.219 278.178,221.010 274.536,220.666 275.093 C 220.518 275.332,221.036 276.732,221.816 278.202 C 224.069 282.450,221.932 283.520,217.897 280.164 C 216.849 279.293,213.254 279.012,212.522 279.745 C 211.843 280.423,213.308 282.491,217.237 286.401 C 222.034 291.176,222.464 292.110,219.957 292.321 C 218.286 292.461,211.964 290.201,206.909 287.656 C 205.099 286.745,203.059 286.000,202.375 286.000 L 201.133 286.000 201.267 290.833 C 201.439 297.085,200.577 296.624,211.840 296.497 C 223.612 296.366,223.167 296.354,224.009 296.805 C 224.591 297.116,224.954 296.911,225.890 295.745 L 227.050 294.299 228.927 296.149 C 231.684 298.867,235.587 298.388,235.026 295.401 C 234.696 293.641,235.983 293.069,237.360 294.362 C 238.576 295.505,240.156 295.437,241.129 294.200 C 241.671 293.511,242.307 293.200,243.177 293.200 C 245.586 293.200,247.600 291.584,247.600 289.651 C 247.600 288.965,247.793 288.882,248.953 289.070 C 250.362 289.299,252.859 288.146,255.331 286.125 C 255.953 285.616,256.656 285.200,256.894 285.200 C 257.132 285.200,258.244 284.370,259.364 283.356 C 262.386 280.619,270.684 275.384,273.168 274.646 C 275.801 273.865,277.429 272.869,276.916 272.356 C 276.342 271.782,270.314 271.495,269.500 272.003 M123.600 272.577 C 123.600 273.134,125.051 274.400,125.689 274.400 C 126.453 274.400,125.898 272.882,124.981 272.464 C 123.684 271.873,123.600 271.880,123.600 272.577 M137.078 275.007 C 136.259 276.033,135.654 276.400,134.783 276.400 C 133.342 276.400,133.295 276.774,134.585 277.986 C 135.489 278.835,135.646 278.862,136.485 278.319 C 136.988 277.993,137.893 277.605,138.495 277.457 C 139.394 277.235,141.200 274.849,141.200 273.882 C 141.200 272.933,138.045 273.794,137.078 275.007 M238.400 275.626 C 238.400 276.645,239.093 278.000,239.614 278.000 C 240.124 278.000,240.107 276.548,239.586 275.574 C 239.042 274.557,238.400 274.586,238.400 275.626 M186.962 277.260 C 185.861 278.504,181.473 280.400,179.698 280.400 C 178.862 280.400,177.781 280.678,177.295 281.018 C 175.668 282.158,169.736 282.121,168.030 280.962 C 165.366 279.152,162.510 280.179,164.441 282.253 C 166.691 284.669,171.288 288.026,172.026 287.792 C 172.862 287.526,174.158 288.097,175.504 289.324 C 176.095 289.862,177.251 290.247,178.831 290.433 C 180.577 290.639,181.904 291.121,183.587 292.160 C 185.401 293.279,186.340 293.600,187.804 293.600 C 188.840 293.600,191.207 293.998,193.063 294.485 C 197.614 295.679,197.736 295.586,198.027 290.700 C 198.173 288.234,198.476 286.543,198.884 285.922 C 199.847 284.451,199.153 283.613,193.810 279.799 C 188.696 276.148,188.132 275.939,186.962 277.260 M154.231 277.550 C 154.112 277.743,154.303 278.746,154.655 279.779 L 155.295 281.659 156.417 280.583 C 157.703 279.352,157.587 278.620,155.971 277.785 C 154.650 277.102,154.519 277.084,154.231 277.550 M241.377 282.126 C 241.013 283.061,241.803 284.800,242.591 284.800 C 243.439 284.800,243.352 283.474,242.430 282.344 C 241.719 281.473,241.638 281.456,241.377 282.126 M153.626 282.766 C 152.482 283.646,153.148 285.229,155.023 286.083 C 156.390 286.706,156.562 286.344,156.005 284.022 C 155.478 281.823,155.108 281.628,153.626 282.766 M177.067 301.067 C 176.201 301.932,176.825 303.600,178.014 303.600 C 178.682 303.600,179.660 303.883,180.187 304.228 C 181.423 305.038,182.913 304.379,182.724 303.105 C 182.553 301.948,177.872 300.261,177.067 301.067 M219.689 304.223 C 217.859 305.505,218.678 307.306,221.167 307.472 C 222.961 307.592,223.781 308.426,223.440 309.783 C 223.083 311.207,222.221 311.445,220.594 310.569 C 219.067 309.747,218.971 309.779,218.604 311.243 C 218.281 312.528,219.202 313.574,220.729 313.660 C 225.124 313.908,226.417 312.644,224.826 309.654 C 224.401 308.855,223.940 307.345,223.802 306.301 C 223.458 303.698,221.704 302.811,219.689 304.223 M198.538 305.817 C 198.236 306.604,198.548 306.905,199.799 307.039 C 200.540 307.118,200.800 306.956,200.800 306.416 C 200.800 305.240,198.947 304.750,198.538 305.817 M175.023 306.489 C 173.706 308.368,175.890 310.538,179.139 310.577 L 181.000 310.600 181.367 308.700 C 181.813 306.391,181.505 305.974,180.234 307.168 C 179.036 308.294,177.965 308.122,177.281 306.695 C 176.645 305.369,175.858 305.297,175.023 306.489 M157.496 310.216 C 155.166 312.376,159.120 316.276,162.212 314.867 C 164.145 313.987,163.619 311.559,161.525 311.693 C 159.945 311.794,159.828 311.725,159.467 310.500 C 159.006 308.935,158.895 308.919,157.496 310.216 M201.067 309.467 C 200.920 309.613,200.800 310.117,200.800 310.587 C 200.800 312.532,198.887 313.002,197.789 311.327 L 197.086 310.254 196.343 311.171 C 194.717 313.179,196.046 314.800,199.315 314.800 C 202.713 314.800,203.311 313.998,202.337 310.746 C 201.881 309.226,201.595 308.938,201.067 309.467 M240.983 315.700 C 240.579 317.070,240.098 317.212,237.900 316.613 C 236.617 316.263,236.225 318.625,237.403 319.603 C 240.087 321.830,244.875 318.129,242.771 315.454 C 241.699 314.091,241.446 314.125,240.983 315.700 M165.600 318.392 C 165.600 319.321,168.405 320.927,169.377 320.554 C 171.118 319.885,168.990 317.600,166.626 317.600 C 165.870 317.600,165.600 317.808,165.600 318.392 M151.724 319.854 C 151.332 320.875,152.154 321.787,153.591 321.929 C 155.567 322.124,156.043 321.355,154.678 320.172 C 153.382 319.050,152.086 318.910,151.724 319.854 M173.976 320.015 C 173.480 320.321,173.488 320.459,174.029 321.001 C 174.862 321.833,177.000 321.998,177.000 321.229 C 177.000 320.465,174.725 319.552,173.976 320.015 M181.762 321.002 C 180.726 322.584,182.856 324.400,185.747 324.400 C 187.886 324.400,188.401 324.061,188.394 322.657 C 188.383 320.516,187.887 320.164,186.411 321.253 L 185.127 322.200 184.249 321.100 C 183.161 319.738,182.604 319.716,181.762 321.002 M215.200 320.924 C 215.200 322.780,214.270 323.458,212.569 322.843 C 210.299 322.022,208.968 324.032,210.889 325.377 C 214.213 327.706,218.093 325.035,216.595 321.449 C 215.910 319.809,215.200 319.542,215.200 320.924 M162.429 322.847 C 161.115 324.624,161.612 325.908,164.089 327.137 C 166.772 328.468,168.151 327.997,168.322 325.691 L 168.444 324.044 166.735 324.122 C 165.130 324.195,165.013 324.127,164.810 323.005 C 164.516 321.378,163.561 321.315,162.429 322.847 M225.100 322.432 C 223.481 323.375,225.114 324.903,226.785 324.008 C 227.756 323.488,227.850 322.582,226.967 322.243 C 226.140 321.925,225.935 321.946,225.100 322.432 M232.582 322.563 C 231.937 323.035,231.907 323.207,232.375 323.770 C 232.925 324.432,233.715 324.474,233.596 323.835 C 233.561 323.645,233.736 323.363,233.985 323.209 C 234.310 323.009,234.282 322.800,233.886 322.471 C 233.467 322.124,233.153 322.146,232.582 322.563 M148.989 323.218 C 148.303 324.328,151.195 326.545,152.377 325.814 C 153.035 325.407,152.876 324.192,152.069 323.462 C 151.252 322.723,149.386 322.575,148.989 323.218 M243.756 328.256 C 241.268 329.944,240.263 330.162,238.603 329.375 C 237.388 328.798,237.004 328.770,236.204 329.198 C 235.411 329.622,234.979 329.598,233.618 329.054 C 231.370 328.154,230.935 328.225,230.674 329.530 C 230.501 330.396,230.062 330.811,228.796 331.309 L 227.145 331.957 227.423 333.879 C 227.919 337.303,229.788 337.856,231.564 335.103 L 232.530 333.606 235.165 333.843 C 237.569 334.059,237.923 333.988,239.200 333.043 C 241.135 331.610,242.970 330.800,244.287 330.798 C 247.185 330.792,249.867 329.003,249.024 327.638 C 248.493 326.779,245.397 327.142,243.756 328.256 M171.760 328.865 C 171.597 329.128,171.866 329.648,172.381 330.065 C 174.076 331.438,175.941 330.682,174.577 329.175 C 173.801 328.317,172.207 328.142,171.760 328.865 M160.806 330.500 C 160.816 331.317,161.354 331.927,162.408 332.318 C 164.356 333.039,165.172 331.786,163.511 330.623 C 162.445 329.876,160.798 329.801,160.806 330.500 M170.400 334.971 C 170.400 335.766,171.466 336.751,172.647 337.047 C 173.849 337.349,174.151 337.105,173.829 336.091 C 173.411 334.773,170.400 333.791,170.400 334.971 " stroke="none" fill="#fce404" fill-rule="evenodd"></path><path id="path3" d="M195.898 22.409 C 193.551 23.002,192.297 23.702,155.200 45.116 C 135.950 56.229,106.160 73.426,89.000 83.332 C 71.840 93.238,56.204 102.256,54.253 103.372 C 48.342 106.752,45.737 109.593,44.139 114.400 C 43.343 116.796,42.744 232.718,43.512 235.700 C 43.740 236.586,44.120 237.040,44.702 237.125 C 46.135 237.335,98.614 206.828,100.600 204.631 L 102.200 202.861 103.322 203.830 L 104.445 204.800 116.209 204.800 C 126.452 204.800,128.157 204.712,129.398 204.120 C 130.739 203.481,130.891 203.481,131.973 204.120 C 132.698 204.549,133.988 204.802,135.462 204.805 C 138.740 204.813,139.484 205.093,139.975 206.500 C 140.675 208.508,140.493 212.048,139.600 213.800 C 139.160 214.663,138.800 215.927,138.800 216.609 C 138.800 217.513,138.486 218.081,137.645 218.703 C 133.702 221.619,128.488 230.203,127.134 236.009 C 126.060 240.612,125.644 240.898,121.545 239.842 C 116.722 238.599,116.347 238.944,114.201 246.600 C 112.109 254.060,112.718 253.765,102.166 252.415 C 94.427 251.424,83.669 251.354,83.309 252.292 C 82.865 253.451,83.882 254.201,89.040 256.515 C 97.624 260.367,97.519 261.282,88.461 261.532 C 79.666 261.776,74.009 260.456,64.121 255.851 C 56.602 252.349,53.901 251.548,48.789 251.305 C 42.970 251.028,43.400 250.040,43.400 263.697 C 43.400 276.949,43.075 276.128,48.468 276.518 C 54.934 276.985,60.137 278.728,71.892 284.364 C 82.273 289.342,85.625 289.164,99.374 282.909 C 106.900 279.484,109.090 278.754,112.926 278.391 C 114.927 278.202,116.868 277.785,117.412 277.429 C 120.771 275.228,124.811 279.436,124.741 285.061 C 124.694 288.866,126.088 293.406,129.256 299.763 C 132.072 305.412,132.314 305.178,123.925 304.918 C 115.426 304.655,113.079 305.127,103.240 309.083 C 99.588 310.552,94.980 312.405,93.000 313.202 C 86.992 315.620,86.419 314.975,103.200 324.673 C 115.596 331.837,114.487 331.430,118.723 330.369 C 123.993 329.049,128.221 329.644,136.085 332.815 C 138.247 333.687,140.680 334.400,141.492 334.400 C 142.727 334.400,143.265 334.709,144.804 336.300 C 147.111 338.686,153.210 341.777,156.400 342.177 C 157.610 342.329,159.625 342.738,160.878 343.086 C 164.617 344.125,170.518 342.102,174.600 338.382 C 175.260 337.780,176.250 337.158,176.800 336.999 C 179.006 336.359,180.376 335.173,180.873 333.472 C 181.491 331.356,181.520 331.339,185.106 331.003 C 186.753 330.849,189.023 330.407,190.150 330.021 C 191.278 329.635,192.920 329.186,193.800 329.023 C 196.405 328.540,197.543 327.662,197.680 326.025 C 197.860 323.886,200.800 323.850,200.800 325.987 C 200.800 327.460,208.055 330.337,211.899 330.388 C 213.627 330.411,218.177 332.924,220.400 335.083 C 221.610 336.258,223.520 338.115,224.645 339.210 C 225.770 340.304,227.030 341.215,227.445 341.232 C 230.332 341.356,232.027 341.615,233.550 342.167 C 235.895 343.015,236.355 342.976,238.640 341.739 C 240.271 340.855,241.049 340.690,243.276 340.754 C 246.358 340.842,248.025 340.263,249.896 338.453 C 250.994 337.393,251.497 337.200,253.171 337.200 C 254.717 337.200,256.315 336.684,260.475 334.841 C 270.001 330.622,273.431 329.997,281.800 330.956 L 284.600 331.277 292.400 326.793 C 307.913 317.876,308.800 317.313,308.800 316.387 C 308.800 315.687,305.495 315.161,300.778 315.112 C 295.259 315.054,295.578 315.260,294.419 311.000 C 292.840 305.195,289.864 300.454,286.532 298.435 C 284.350 297.112,284.367 296.667,286.758 292.452 C 287.835 290.553,289.026 288.154,289.405 287.120 C 290.374 284.474,291.198 283.812,292.875 284.333 C 293.604 284.559,295.190 284.865,296.400 285.012 C 297.610 285.159,301.242 285.801,304.472 286.439 C 316.788 288.873,323.617 287.636,331.200 281.598 C 337.235 276.792,341.984 275.127,349.400 275.215 C 351.820 275.243,354.086 275.252,354.436 275.233 C 355.796 275.162,356.000 273.429,356.000 261.963 L 356.000 250.764 355.018 249.782 C 352.002 246.766,338.990 250.529,327.187 257.830 C 319.252 262.738,315.132 262.312,299.247 254.941 C 287.985 249.715,281.149 247.784,276.549 248.531 C 273.281 249.061,273.068 248.449,274.995 244.066 C 279.958 232.778,279.592 218.462,274.100 209.046 C 271.555 204.682,271.310 204.800,282.915 204.800 C 291.672 204.800,292.130 204.762,293.294 203.933 C 294.489 203.082,294.523 203.080,295.064 203.833 C 295.367 204.255,296.035 205.050,296.548 205.600 C 297.730 206.868,353.236 237.200,354.375 237.200 C 355.992 237.200,356.000 236.901,356.000 176.594 C 356.000 114.130,356.048 115.688,353.978 111.567 C 351.805 107.243,351.026 106.739,309.200 82.627 C 287.750 70.262,256.070 51.981,238.800 42.004 C 202.212 20.866,202.137 20.832,195.898 22.409 M173.920 61.680 C 174.464 62.224,174.571 63.600,174.070 63.600 C 173.528 63.600,171.970 61.763,172.263 61.470 C 172.676 61.057,173.387 61.147,173.920 61.680 M190.130 61.463 C 190.494 61.827,189.626 62.800,188.937 62.800 C 188.496 62.800,188.466 62.625,188.800 62.000 C 189.241 61.176,189.670 61.003,190.130 61.463 M224.134 61.468 C 224.430 61.764,223.273 63.200,222.738 63.200 C 222.204 63.200,222.345 61.689,222.900 61.465 C 223.632 61.170,223.837 61.170,224.134 61.468 M160.000 62.200 C 159.726 62.530,159.344 62.800,159.151 62.800 C 158.958 62.800,158.800 62.530,158.800 62.200 C 158.800 61.855,159.161 61.600,159.649 61.600 C 160.358 61.600,160.416 61.699,160.000 62.200 M207.416 62.027 C 207.852 62.732,207.393 62.830,206.571 62.209 C 205.894 61.697,205.883 61.624,206.476 61.613 C 206.848 61.606,207.271 61.792,207.416 62.027 M237.600 62.200 C 237.600 62.530,237.442 62.800,237.249 62.800 C 237.056 62.800,236.674 62.530,236.400 62.200 C 235.984 61.699,236.042 61.600,236.751 61.600 C 237.239 61.600,237.600 61.855,237.600 62.200 M175.200 71.200 C 175.542 71.839,175.504 72.000,175.014 72.000 C 174.676 72.000,174.400 71.925,174.400 71.833 C 174.400 71.741,174.291 71.381,174.157 71.033 C 173.804 70.113,174.695 70.256,175.200 71.200 M162.372 87.780 C 162.303 89.784,161.920 90.071,160.395 89.255 C 158.938 88.477,158.103 86.952,158.527 85.846 C 158.906 84.858,162.412 86.621,162.372 87.780 M238.000 86.278 C 238.000 88.592,235.096 90.431,234.387 88.566 C 233.900 87.285,234.077 86.990,235.926 86.014 C 237.863 84.991,238.000 85.008,238.000 86.278 M199.200 86.795 C 199.973 87.288,199.246 88.600,198.200 88.600 C 197.154 88.600,196.427 87.288,197.200 86.795 C 197.530 86.584,197.980 86.412,198.200 86.412 C 198.420 86.412,198.870 86.584,199.200 86.795 M199.690 93.599 C 201.140 94.482,225.480 94.826,228.989 94.013 C 230.991 93.548,230.989 93.545,230.396 96.017 C 229.907 98.057,229.890 98.074,228.651 97.775 C 225.133 96.928,201.200 97.149,199.608 98.043 L 198.070 98.908 196.688 98.054 C 195.350 97.228,194.882 97.200,182.283 97.200 L 169.261 97.200 168.073 98.200 C 166.497 99.526,166.562 99.577,165.997 96.582 C 165.393 93.384,165.276 93.499,168.640 93.985 C 174.253 94.797,195.230 94.508,196.600 93.600 C 198.080 92.620,198.085 92.620,199.690 93.599 M168.322 111.880 C 166.793 113.458,166.267 113.151,166.267 110.683 C 166.267 108.004,166.666 107.714,168.246 109.245 L 169.602 110.559 168.322 111.880 M199.680 109.476 L 200.803 110.553 199.727 111.676 C 198.379 113.083,198.018 113.080,196.643 111.645 L 195.537 110.491 196.664 109.445 C 198.069 108.143,198.291 108.146,199.680 109.476 M229.934 110.350 C 230.132 111.745,229.428 112.257,228.208 111.604 C 227.031 110.974,226.912 110.210,227.900 109.627 C 228.956 109.003,229.784 109.298,229.934 110.350 M115.920 112.080 C 116.811 112.971,116.446 113.445,115.000 113.276 C 114.230 113.186,113.600 112.988,113.600 112.836 C 113.600 112.405,114.512 111.600,115.000 111.600 C 115.242 111.600,115.656 111.816,115.920 112.080 M282.575 112.232 C 283.475 113.132,282.997 113.600,281.176 113.600 C 279.429 113.600,279.289 113.406,280.262 112.331 C 281.075 111.433,281.747 111.405,282.575 112.232 M108.548 119.700 C 108.960 121.239,108.847 121.496,107.163 122.830 C 104.570 124.883,103.714 122.606,106.160 120.160 C 107.755 118.565,108.220 118.475,108.548 119.700 M123.969 120.651 C 124.836 121.754,125.110 124.000,124.377 124.000 C 123.849 124.000,120.800 121.578,120.800 121.159 C 120.800 118.762,122.295 118.523,123.969 120.651 M275.404 120.016 C 275.716 121.437,275.272 122.107,273.550 122.821 C 271.381 123.719,271.143 122.054,273.133 119.900 C 274.448 118.477,275.073 118.510,275.404 120.016 M290.457 120.263 C 292.422 122.497,291.547 124.201,289.226 122.664 C 287.793 121.716,287.622 121.446,287.850 120.491 C 288.307 118.577,288.927 118.523,290.457 120.263 M167.968 129.366 C 168.981 130.444,168.865 131.455,167.598 132.602 C 166.571 133.531,166.162 132.527,166.337 129.500 C 166.415 128.147,166.794 128.116,167.968 129.366 M199.539 129.735 L 200.417 130.670 199.580 131.735 C 198.059 133.668,195.212 131.862,196.553 129.815 C 197.383 128.550,198.400 128.522,199.539 129.735 M229.814 131.155 C 229.499 132.149,229.222 132.197,228.182 131.436 C 227.421 130.880,227.421 130.861,228.179 130.024 C 229.135 128.967,230.261 129.747,229.814 131.155 M126.400 136.421 C 126.400 137.321,125.365 138.149,124.605 137.857 C 123.985 137.619,123.788 135.817,124.251 134.611 C 124.570 133.781,126.400 135.323,126.400 136.421 M167.466 135.027 C 167.781 135.848,167.148 136.462,166.438 136.024 C 165.834 135.650,166.112 134.400,166.800 134.400 C 167.034 134.400,167.333 134.682,167.466 135.027 M272.000 136.600 C 272.000 138.130,271.917 138.198,270.774 137.586 C 269.892 137.114,269.779 136.381,270.480 135.680 C 271.385 134.775,272.000 135.147,272.000 136.600 M247.892 136.184 C 259.606 137.565,272.349 141.262,273.626 143.649 C 274.311 144.928,274.021 146.028,270.800 154.400 C 269.040 158.974,267.600 162.901,267.600 163.127 C 267.600 163.354,267.120 164.109,266.534 164.805 C 265.229 166.356,264.593 166.303,259.213 164.199 C 237.983 155.898,215.849 159.270,215.879 170.800 C 215.896 177.582,220.958 181.217,239.872 188.030 C 267.945 198.143,277.322 207.695,277.339 226.200 C 277.364 253.369,259.015 267.257,224.400 266.268 C 205.248 265.721,185.600 261.019,185.600 256.983 C 185.600 255.550,192.716 237.563,193.703 236.500 C 194.804 235.315,195.044 235.340,200.293 237.193 C 225.438 246.072,248.765 242.849,249.899 230.339 C 250.620 222.393,245.797 218.912,222.853 210.817 C 197.483 201.866,188.000 191.631,188.000 173.200 C 188.000 146.060,211.016 131.835,247.892 136.184 M137.200 137.862 C 137.200 138.899,137.181 138.907,136.400 138.200 C 135.960 137.802,135.600 137.324,135.600 137.138 C 135.600 136.952,135.960 136.800,136.400 136.800 C 136.999 136.800,137.200 137.067,137.200 137.862 M167.820 138.984 L 168.804 139.968 168.789 186.684 C 168.774 234.738,168.727 236.285,167.128 241.800 C 161.007 262.909,143.959 270.649,118.260 263.988 C 110.618 262.007,110.646 262.092,114.008 250.800 C 114.696 248.490,115.613 245.378,116.046 243.884 C 117.078 240.321,117.681 240.017,121.793 240.985 C 130.185 242.962,136.683 240.796,139.155 235.198 C 140.871 231.312,140.914 230.163,141.016 185.000 C 141.130 134.260,141.013 139.787,142.000 138.800 C 142.764 138.036,143.333 138.000,154.818 138.000 L 166.836 138.000 167.820 138.984 M138.469 148.959 C 138.656 150.041,137.740 150.210,137.196 149.193 C 136.563 148.010,137.006 146.828,137.783 147.629 C 138.088 147.943,138.396 148.541,138.469 148.959 M108.739 157.815 C 109.149 158.189,109.173 158.503,108.839 159.127 C 108.598 159.578,108.400 160.329,108.400 160.796 C 108.400 161.635,108.384 161.636,107.153 160.923 C 105.598 160.021,104.598 158.059,104.960 156.618 L 105.227 155.552 106.714 156.438 C 107.531 156.925,108.443 157.545,108.739 157.815 M125.764 156.600 C 127.019 157.557,127.318 157.600,132.689 157.600 C 138.599 157.600,139.441 157.846,139.129 159.481 C 139.015 160.073,138.437 160.245,135.862 160.454 C 133.069 160.682,132.593 160.843,131.444 161.958 L 130.156 163.206 129.003 162.003 C 127.719 160.663,126.797 160.538,123.621 161.271 C 121.302 161.806,121.010 161.639,120.642 159.562 C 120.411 158.257,122.366 156.173,124.327 155.635 C 124.396 155.616,125.043 156.050,125.764 156.600 M291.600 157.689 C 291.600 158.124,290.949 159.131,290.153 159.927 L 288.706 161.374 287.924 159.849 C 287.052 158.149,287.039 158.181,289.111 156.987 C 290.731 156.053,291.600 156.298,291.600 157.689 M274.563 157.184 C 276.285 157.922,276.369 158.029,275.996 159.010 C 275.778 159.583,275.600 160.502,275.600 161.053 C 275.600 161.819,275.436 162.005,274.900 161.846 C 274.515 161.732,273.660 161.515,273.000 161.364 C 270.698 160.838,270.262 159.801,271.410 157.580 C 272.133 156.182,272.205 156.173,274.563 157.184 M188.331 158.943 C 188.644 161.684,186.997 163.226,185.599 161.500 C 184.913 160.654,184.576 160.601,179.993 160.613 C 173.494 160.631,172.686 161.488,175.968 164.881 C 176.755 165.696,177.799 166.821,178.286 167.381 C 178.991 168.193,179.540 168.400,180.986 168.400 L 182.800 168.400 182.714 170.374 C 182.654 171.753,182.830 172.570,183.299 173.088 C 186.069 176.150,185.398 181.260,182.307 180.641 C 181.359 180.452,180.900 180.638,179.935 181.603 C 178.738 182.800,177.836 183.106,177.433 182.453 C 177.144 181.986,172.867 181.968,172.580 182.433 C 172.164 183.105,171.627 182.813,170.981 181.564 C 169.790 179.260,170.140 179.117,176.621 179.257 C 181.416 179.360,182.506 179.278,182.814 178.791 C 183.831 177.182,182.345 176.671,176.236 176.527 C 170.546 176.393,170.507 176.383,171.064 175.135 C 171.415 174.348,171.766 174.259,174.627 174.231 L 177.800 174.200 177.919 172.376 C 178.073 170.014,177.463 168.400,176.416 168.400 C 175.920 168.400,175.204 167.785,174.553 166.800 C 173.832 165.711,173.202 165.200,172.583 165.200 C 171.370 165.200,169.791 162.097,170.186 160.490 C 170.919 157.510,170.704 157.572,179.915 157.692 L 188.200 157.800 188.331 158.943 M232.967 161.443 C 233.315 161.576,233.600 161.930,233.600 162.229 C 233.600 162.800,232.075 163.809,231.732 163.465 C 231.622 163.355,231.020 163.444,230.394 163.662 C 229.606 163.937,228.998 163.920,228.413 163.607 C 227.222 162.969,226.230 163.406,225.409 164.932 C 224.835 165.997,224.501 166.218,223.650 166.094 C 222.826 165.975,222.450 166.197,221.904 167.127 C 221.520 167.778,220.771 168.421,220.237 168.555 C 219.680 168.695,219.042 169.309,218.736 169.999 C 218.135 171.357,217.600 171.569,217.600 170.450 C 217.600 165.651,228.019 159.544,232.967 161.443 M236.906 161.839 C 237.226 162.160,236.807 163.200,236.357 163.200 C 236.161 163.200,236.000 162.840,236.000 162.400 C 236.000 161.620,236.424 161.358,236.906 161.839 M111.786 164.274 C 113.478 165.081,113.558 165.660,112.131 166.782 C 110.886 167.762,110.654 167.593,110.098 165.300 C 109.636 163.399,109.775 163.315,111.786 164.274 M286.190 165.300 C 285.799 167.154,285.398 167.422,284.196 166.634 C 282.989 165.843,283.060 165.206,284.432 164.506 C 286.085 163.662,286.496 163.848,286.190 165.300 M111.589 175.660 C 111.602 175.975,108.910 177.600,108.377 177.600 C 107.798 177.600,107.929 175.744,108.624 174.087 L 109.249 172.600 110.414 174.000 C 111.054 174.770,111.583 175.517,111.589 175.660 M228.144 174.584 C 229.802 174.273,230.405 175.168,230.395 177.926 C 230.384 180.738,230.048 181.312,228.553 181.070 C 226.624 180.757,224.976 179.839,225.149 179.173 C 225.231 178.858,225.382 178.304,225.484 177.943 C 225.681 177.249,224.441 176.708,221.539 176.223 C 218.815 175.767,219.219 174.018,222.051 174.006 C 222.863 174.003,223.727 173.729,224.013 173.384 C 224.465 172.840,224.650 172.890,225.612 173.812 C 226.531 174.692,226.926 174.813,228.144 174.584 M238.800 175.667 C 238.800 175.830,238.125 176.067,237.300 176.194 C 236.475 176.320,235.247 176.598,234.572 176.812 C 232.815 177.367,232.521 177.306,232.267 176.335 C 231.954 175.139,232.654 174.003,233.714 173.986 C 234.201 173.978,235.050 173.712,235.600 173.396 C 236.556 172.845,238.800 174.437,238.800 175.667 M268.400 175.642 C 268.400 176.108,266.352 176.453,265.149 176.189 C 263.727 175.877,263.719 175.596,265.082 173.976 L 266.163 172.691 267.282 174.030 C 267.897 174.767,268.400 175.492,268.400 175.642 M131.560 174.431 C 132.663 175.923,132.450 176.200,130.200 176.200 C 127.957 176.200,127.725 175.910,128.784 174.423 C 129.879 172.884,130.417 172.886,131.560 174.431 M287.936 174.619 C 289.075 177.119,288.461 178.053,286.435 176.900 C 285.051 176.112,284.892 175.403,285.862 174.331 C 286.770 173.329,287.387 173.414,287.936 174.619 M121.128 175.795 C 121.533 176.200,119.373 178.041,118.766 177.808 C 117.742 177.415,117.034 175.955,117.663 175.532 C 118.199 175.172,120.694 175.361,121.128 175.795 M253.593 175.587 C 254.173 175.954,252.398 178.400,251.552 178.400 C 250.802 178.400,249.482 175.920,250.043 175.565 C 250.776 175.101,252.844 175.114,253.593 175.587 M278.758 175.566 C 279.451 176.004,279.102 177.010,278.065 177.565 C 277.283 177.984,275.200 176.847,275.200 176.000 C 275.200 175.322,277.861 174.997,278.758 175.566 M106.778 190.769 L 107.610 191.938 106.443 192.769 C 104.852 193.902,104.400 193.815,104.400 192.374 C 104.400 189.698,105.491 188.962,106.778 190.769 M278.187 190.385 C 279.071 191.363,278.723 192.402,277.513 192.394 C 275.838 192.383,275.427 191.835,276.204 190.650 C 277.028 189.393,277.260 189.362,278.187 190.385 M291.586 190.374 C 292.069 191.277,292.143 193.600,291.689 193.600 C 291.037 193.600,289.600 192.328,289.600 191.751 C 289.600 190.931,290.343 189.600,290.800 189.600 C 291.005 189.600,291.358 189.948,291.586 190.374 M120.399 190.898 C 121.350 192.072,121.088 192.400,119.200 192.400 C 117.347 192.400,116.866 191.832,117.823 190.775 C 118.742 189.759,119.506 189.796,120.399 190.898 M179.146 191.900 C 179.694 192.925,179.481 197.306,178.873 197.509 C 178.598 197.601,177.614 197.367,176.686 196.988 C 175.759 196.610,174.102 196.278,173.005 196.251 C 170.788 196.194,170.288 195.504,171.214 193.773 C 171.661 192.939,171.788 192.905,172.564 193.413 C 173.318 193.908,173.561 193.881,174.610 193.190 C 175.265 192.758,176.093 192.404,176.451 192.403 C 176.809 192.401,177.326 192.130,177.600 191.800 C 178.252 191.014,178.688 191.042,179.146 191.900 M132.598 191.997 C 132.733 192.215,132.371 192.865,131.795 193.441 L 130.747 194.490 129.773 193.575 C 128.284 192.176,128.518 191.600,130.576 191.600 C 131.553 191.600,132.463 191.778,132.598 191.997 M267.233 192.000 C 267.839 192.000,267.649 193.051,266.869 194.014 L 266.138 194.917 265.260 193.684 C 264.332 192.380,264.941 191.316,266.333 191.811 C 266.626 191.915,267.031 192.000,267.233 192.000 M184.400 195.600 C 185.459 196.659,185.411 197.153,184.262 197.027 C 182.928 196.880,182.400 196.469,182.400 195.576 C 182.400 194.571,183.383 194.583,184.400 195.600 M176.400 199.820 C 176.400 200.162,175.791 201.017,175.047 201.720 C 174.303 202.424,173.580 203.492,173.441 204.094 C 173.085 205.630,171.106 208.800,170.503 208.800 C 169.800 208.800,169.857 206.040,170.596 204.272 C 170.994 203.319,171.108 202.243,170.941 201.023 L 170.691 199.200 173.546 199.200 C 175.858 199.200,176.400 199.318,176.400 199.820 M211.000 207.347 C 213.420 208.405,218.443 210.339,222.163 211.644 C 241.675 218.489,247.169 221.617,248.654 226.726 C 250.523 233.157,244.808 240.161,240.351 236.900 C 239.825 236.515,239.036 236.004,238.597 235.764 C 235.583 234.115,233.909 233.136,231.863 231.826 C 228.143 229.442,226.873 229.010,225.972 229.825 C 225.141 230.578,224.000 230.344,224.000 229.422 C 224.000 229.090,224.439 228.531,224.975 228.180 C 225.511 227.829,226.063 227.023,226.202 226.389 C 226.499 225.036,227.468 224.617,228.973 225.190 C 234.577 227.320,230.656 224.499,218.159 217.408 C 201.693 208.065,201.725 208.085,200.828 206.945 C 199.508 205.267,199.746 205.106,203.300 205.271 C 206.185 205.404,207.154 205.665,211.000 207.347 M239.734 224.627 C 239.401 225.496,240.247 226.313,240.853 225.707 C 241.365 225.195,241.048 224.000,240.400 224.000 C 240.166 224.000,239.867 224.282,239.734 224.627 M173.558 240.549 C 174.648 241.863,172.525 243.323,170.837 242.420 C 169.735 241.830,169.781 241.533,171.101 240.737 C 172.488 239.899,172.987 239.861,173.558 240.549 M168.054 247.624 C 172.015 254.953,173.661 259.600,172.297 259.600 C 172.007 259.600,171.056 259.983,170.185 260.450 C 169.313 260.918,167.790 261.447,166.800 261.625 C 165.810 261.804,164.213 262.121,163.251 262.330 C 161.167 262.783,156.800 262.097,156.800 261.316 C 156.800 261.041,157.882 259.622,159.204 258.163 C 161.583 255.538,163.350 252.994,165.656 248.874 C 166.822 246.790,167.432 246.472,168.054 247.624 M155.795 264.914 C 156.360 266.558,156.338 268.883,155.755 269.080 C 154.844 269.388,153.708 264.452,154.506 263.654 C 155.054 263.106,155.234 263.282,155.795 264.914 M266.739 264.178 C 266.874 264.879,265.889 266.000,265.138 266.000 C 264.284 266.000,263.905 264.258,264.642 263.720 C 265.613 263.010,266.553 263.215,266.739 264.178 M302.956 264.629 C 303.124 265.068,302.996 265.219,302.532 265.129 C 302.166 265.058,301.791 264.775,301.700 264.500 C 301.455 263.765,302.672 263.890,302.956 264.629 M143.409 269.209 C 143.977 269.838,144.034 270.126,143.663 270.497 C 143.068 271.092,141.111 270.037,140.965 269.043 C 140.828 268.106,142.514 268.221,143.409 269.209 M276.916 272.356 C 277.429 272.869,275.801 273.865,273.168 274.646 C 270.684 275.384,262.386 280.619,259.364 283.356 C 258.244 284.370,257.132 285.200,256.894 285.200 C 256.656 285.200,255.953 285.616,255.331 286.125 C 252.859 288.146,250.362 289.299,248.953 289.070 C 247.793 288.882,247.600 288.965,247.600 289.651 C 247.600 291.584,245.586 293.200,243.177 293.200 C 242.307 293.200,241.671 293.511,241.129 294.200 C 240.156 295.437,238.576 295.505,237.360 294.362 C 235.983 293.069,234.696 293.641,235.026 295.401 C 235.587 298.388,231.684 298.867,228.927 296.149 L 227.050 294.299 225.890 295.745 C 224.954 296.911,224.591 297.116,224.009 296.805 C 223.167 296.354,223.612 296.366,211.840 296.497 C 200.577 296.624,201.439 297.085,201.267 290.833 L 201.133 286.000 202.375 286.000 C 203.059 286.000,205.099 286.745,206.909 287.656 C 211.964 290.201,218.286 292.461,219.957 292.321 C 222.464 292.110,222.034 291.176,217.237 286.401 C 213.308 282.491,211.843 280.423,212.522 279.745 C 213.254 279.012,216.849 279.293,217.897 280.164 C 221.932 283.520,224.069 282.450,221.816 278.202 C 221.036 276.732,220.518 275.332,220.666 275.093 C 221.010 274.536,224.219 278.178,224.813 279.800 C 225.995 283.031,227.232 284.007,228.384 282.619 C 229.287 281.532,230.357 281.941,232.974 284.376 C 234.379 285.683,236.591 287.289,237.888 287.944 C 239.186 288.599,240.484 289.419,240.773 289.767 C 241.661 290.837,242.728 290.499,243.794 288.810 C 244.706 287.365,244.893 287.255,245.825 287.610 C 247.380 288.201,247.829 288.092,248.323 287.008 C 248.812 285.936,252.180 283.620,253.269 283.608 C 253.637 283.603,254.473 283.150,255.127 282.600 C 255.957 281.902,256.793 281.600,257.900 281.600 C 259.068 281.600,259.947 281.254,261.242 280.286 C 262.209 279.564,263.470 278.676,264.044 278.313 C 266.268 276.910,268.800 274.272,268.800 273.358 C 268.800 272.853,269.115 272.243,269.500 272.003 C 270.314 271.495,276.342 271.782,276.916 272.356 M124.981 272.464 C 125.898 272.882,126.453 274.400,125.689 274.400 C 125.051 274.400,123.600 273.134,123.600 272.577 C 123.600 271.880,123.684 271.873,124.981 272.464 M141.200 273.882 C 141.200 274.849,139.394 277.235,138.495 277.457 C 137.893 277.605,136.988 277.993,136.485 278.319 C 135.646 278.862,135.489 278.835,134.585 277.986 C 133.295 276.774,133.342 276.400,134.783 276.400 C 135.654 276.400,136.259 276.033,137.078 275.007 C 138.045 273.794,141.200 272.933,141.200 273.882 M239.586 275.574 C 240.107 276.548,240.124 278.000,239.614 278.000 C 239.093 278.000,238.400 276.645,238.400 275.626 C 238.400 274.586,239.042 274.557,239.586 275.574 M193.810 279.799 C 199.153 283.613,199.847 284.451,198.884 285.922 C 198.476 286.543,198.173 288.234,198.027 290.700 C 197.736 295.586,197.614 295.679,193.063 294.485 C 191.207 293.998,188.840 293.600,187.804 293.600 C 186.340 293.600,185.401 293.279,183.587 292.160 C 181.904 291.121,180.577 290.639,178.831 290.433 C 177.251 290.247,176.095 289.862,175.504 289.324 C 174.158 288.097,172.862 287.526,172.026 287.792 C 171.288 288.026,166.691 284.669,164.441 282.253 C 162.510 280.179,165.366 279.152,168.030 280.962 C 169.736 282.121,175.668 282.158,177.295 281.018 C 177.781 280.678,178.862 280.400,179.698 280.400 C 181.473 280.400,185.861 278.504,186.962 277.260 C 188.132 275.939,188.696 276.148,193.810 279.799 M155.971 277.785 C 157.587 278.620,157.703 279.352,156.417 280.583 L 155.295 281.659 154.655 279.779 C 153.776 277.201,154.047 276.790,155.971 277.785 M243.200 284.044 C 243.200 285.127,242.064 284.977,241.539 283.826 C 240.811 282.227,241.457 281.152,242.430 282.344 C 242.853 282.864,243.200 283.629,243.200 284.044 M156.005 284.022 C 156.562 286.344,156.390 286.706,155.023 286.083 C 153.148 285.229,152.482 283.646,153.626 282.766 C 155.108 281.628,155.478 281.823,156.005 284.022 M180.600 301.564 C 182.869 302.359,183.483 303.606,181.997 304.401 C 181.326 304.761,180.944 304.724,180.187 304.228 C 179.660 303.883,178.682 303.600,178.014 303.600 C 176.948 303.600,176.800 303.462,176.800 302.467 C 176.800 300.557,177.354 300.425,180.600 301.564 M222.802 304.001 C 223.302 304.269,223.635 305.033,223.802 306.301 C 223.940 307.345,224.401 308.855,224.826 309.654 C 226.417 312.644,225.124 313.908,220.729 313.660 C 219.202 313.574,218.281 312.528,218.604 311.243 C 218.971 309.779,219.067 309.747,220.594 310.569 C 222.221 311.445,223.083 311.207,223.440 309.783 C 223.781 308.426,222.961 307.592,221.167 307.472 C 219.364 307.352,218.800 306.953,218.800 305.799 C 218.800 304.120,221.096 303.088,222.802 304.001 M200.167 305.443 C 201.253 305.859,200.953 307.162,199.799 307.039 C 198.548 306.905,198.236 306.604,198.538 305.817 C 198.794 305.151,199.177 305.063,200.167 305.443 M177.281 306.695 C 177.965 308.122,179.036 308.294,180.234 307.168 C 181.505 305.974,181.813 306.391,181.367 308.700 L 181.000 310.600 179.139 310.577 C 175.890 310.538,173.706 308.368,175.023 306.489 C 175.858 305.297,176.645 305.369,177.281 306.695 M159.467 310.500 C 159.828 311.725,159.945 311.794,161.525 311.693 C 163.619 311.559,164.145 313.987,162.212 314.867 C 159.120 316.276,155.166 312.376,157.496 310.216 C 158.895 308.919,159.006 308.935,159.467 310.500 M202.337 310.746 C 203.311 313.998,202.713 314.800,199.315 314.800 C 196.046 314.800,194.717 313.179,196.343 311.171 L 197.086 310.254 197.789 311.327 C 198.887 313.002,200.800 312.532,200.800 310.587 C 200.800 309.727,201.105 309.200,201.603 309.200 C 201.752 309.200,202.082 309.896,202.337 310.746 M242.771 315.454 C 244.875 318.129,240.087 321.830,237.403 319.603 C 236.225 318.625,236.617 316.263,237.900 316.613 C 240.098 317.212,240.579 317.070,240.983 315.700 C 241.446 314.125,241.699 314.091,242.771 315.454 M168.526 318.060 C 170.054 318.864,170.485 320.128,169.377 320.554 C 168.405 320.927,165.600 319.321,165.600 318.392 C 165.600 317.473,167.090 317.304,168.526 318.060 M154.678 320.172 C 156.043 321.355,155.567 322.124,153.591 321.929 C 152.154 321.787,151.332 320.875,151.724 319.854 C 152.086 318.910,153.382 319.050,154.678 320.172 M177.000 321.229 C 177.000 321.998,174.862 321.833,174.029 321.001 C 173.488 320.459,173.480 320.321,173.976 320.015 C 174.725 319.552,177.000 320.465,177.000 321.229 M184.249 321.100 L 185.127 322.200 186.411 321.253 C 187.887 320.164,188.383 320.516,188.394 322.657 C 188.401 324.061,187.886 324.400,185.747 324.400 C 182.856 324.400,180.726 322.584,181.762 321.002 C 182.604 319.716,183.161 319.738,184.249 321.100 M216.595 321.449 C 218.093 325.035,214.213 327.706,210.889 325.377 C 208.968 324.032,210.299 322.022,212.569 322.843 C 214.270 323.458,215.200 322.780,215.200 320.924 C 215.200 319.542,215.910 319.809,216.595 321.449 M164.810 323.005 C 165.013 324.127,165.130 324.195,166.735 324.122 L 168.444 324.044 168.322 325.691 C 168.151 327.997,166.772 328.468,164.089 327.137 C 161.612 325.908,161.115 324.624,162.429 322.847 C 163.561 321.315,164.516 321.378,164.810 323.005 M226.967 322.243 C 227.850 322.582,227.756 323.488,226.785 324.008 C 225.114 324.903,223.481 323.375,225.100 322.432 C 225.935 321.946,226.140 321.925,226.967 322.243 M233.985 323.209 C 233.736 323.363,233.561 323.645,233.596 323.835 C 233.715 324.474,232.925 324.432,232.375 323.770 C 231.641 322.885,232.989 321.727,233.886 322.471 C 234.282 322.800,234.310 323.009,233.985 323.209 M152.069 323.462 C 152.876 324.192,153.035 325.407,152.377 325.814 C 151.195 326.545,148.303 324.328,148.989 323.218 C 149.386 322.575,151.252 322.723,152.069 323.462 M249.024 327.638 C 249.867 329.003,247.185 330.792,244.287 330.798 C 242.970 330.800,241.135 331.610,239.200 333.043 C 237.923 333.988,237.569 334.059,235.165 333.843 L 232.530 333.606 231.564 335.103 C 229.788 337.856,227.919 337.303,227.423 333.879 L 227.145 331.957 228.796 331.309 C 230.062 330.811,230.501 330.396,230.674 329.530 C 230.935 328.225,231.370 328.154,233.618 329.054 C 234.979 329.598,235.411 329.622,236.204 329.198 C 237.004 328.770,237.388 328.798,238.603 329.375 C 240.263 330.162,241.268 329.944,243.756 328.256 C 245.397 327.142,248.493 326.779,249.024 327.638 M174.577 329.175 C 175.941 330.682,174.076 331.438,172.381 330.065 C 171.866 329.648,171.597 329.128,171.760 328.865 C 172.207 328.142,173.801 328.317,174.577 329.175 M163.511 330.623 C 165.172 331.786,164.356 333.039,162.408 332.318 C 161.354 331.927,160.816 331.317,160.806 330.500 C 160.798 329.801,162.445 329.876,163.511 330.623 M172.573 334.861 C 173.545 335.303,174.309 336.625,173.855 337.078 C 173.504 337.429,171.710 336.853,171.028 336.171 C 169.608 334.751,170.560 333.943,172.573 334.861 " stroke="none" fill="#fbb604" fill-rule="evenodd"></path><path id="path4" d="M194.200 3.761 C 191.432 4.639,203.339 -2.169,79.200 69.512 C 28.922 98.545,31.363 96.976,28.874 101.855 C 26.654 106.206,26.784 99.706,26.897 200.814 L 27.000 293.800 28.118 296.187 C 31.222 302.816,28.273 300.850,79.000 330.115 C 127.165 357.901,126.998 357.805,163.400 378.821 C 191.924 395.289,193.831 396.269,198.142 396.663 C 204.116 397.209,204.344 397.104,232.000 381.122 C 261.846 363.874,286.360 349.719,327.800 325.802 C 372.403 300.060,370.200 301.686,372.209 293.023 C 373.275 288.428,372.892 107.812,371.810 104.800 C 369.357 97.970,368.912 97.641,337.800 79.690 C 323.720 71.566,288.890 51.447,260.400 34.979 C 229.629 17.194,207.545 4.670,206.000 4.130 C 202.999 3.080,196.943 2.891,194.200 3.761 M205.945 6.116 C 207.929 6.917,355.744 91.986,362.257 96.075 C 365.488 98.103,367.779 100.646,369.334 103.928 L 370.600 106.600 370.600 199.800 L 370.600 293.000 369.156 296.000 C 366.361 301.805,371.797 298.285,315.400 330.806 C 312.100 332.709,286.540 347.469,258.600 363.606 C 201.535 396.564,205.361 394.555,199.600 394.581 C 193.775 394.607,210.861 404.084,67.692 321.416 C 30.505 299.944,30.574 299.995,29.001 292.570 C 28.269 289.118,28.095 112.517,28.819 108.058 C 30.136 99.937,30.236 99.860,66.046 79.222 C 82.631 69.664,111.770 52.857,130.800 41.872 C 149.830 30.887,171.294 18.498,178.498 14.341 C 185.702 10.183,192.092 6.581,192.698 6.336 C 196.994 4.597,201.982 4.515,205.945 6.116 " stroke="none" fill="#fcf498" fill-rule="evenodd"></path><path id="path5" d="M223.484 136.225 C 200.379 139.820,188.000 152.719,188.000 173.200 C 188.000 191.631,197.483 201.866,222.853 210.817 C 242.091 217.605,248.176 221.087,249.577 226.110 C 253.877 241.531,228.646 247.205,200.293 237.193 C 195.044 235.340,194.804 235.315,193.703 236.500 C 192.716 237.563,185.600 255.550,185.600 256.983 C 185.600 261.019,205.248 265.721,224.400 266.268 C 259.015 267.257,277.364 253.369,277.339 226.200 C 277.322 207.695,267.945 198.143,239.872 188.030 C 220.958 181.217,215.896 177.582,215.879 170.800 C 215.849 159.270,237.983 155.898,259.213 164.199 C 264.593 166.303,265.229 166.356,266.534 164.805 C 267.120 164.109,267.600 163.354,267.600 163.127 C 267.600 162.901,269.040 158.974,270.800 154.400 C 274.985 143.525,274.997 143.767,270.126 141.488 C 260.156 136.824,236.668 134.173,223.484 136.225 M243.400 137.611 C 257.728 138.812,272.000 142.638,272.000 145.277 C 272.000 146.076,269.941 151.805,266.725 159.957 C 264.976 164.387,264.926 164.409,260.575 162.677 C 241.495 155.077,219.960 156.670,215.182 166.035 C 210.537 175.140,216.836 181.533,238.200 189.397 C 258.506 196.870,263.744 199.926,269.656 207.748 C 278.226 219.087,277.573 238.205,268.209 250.089 C 256.409 265.064,222.428 269.200,192.200 259.340 C 186.598 257.513,186.669 258.226,190.992 247.234 C 195.255 236.394,194.426 237.118,200.265 239.134 C 209.723 242.400,214.988 243.456,223.800 243.857 C 241.450 244.660,251.470 239.653,251.713 229.909 C 251.932 221.104,246.855 217.368,223.547 209.185 C 198.709 200.466,190.000 191.138,190.000 173.252 C 190.000 147.970,209.748 134.789,243.400 137.611 M142.000 138.800 C 141.013 139.787,141.130 134.260,141.016 185.000 C 140.914 230.163,140.871 231.312,139.155 235.198 C 136.683 240.796,130.185 242.962,121.793 240.985 C 117.681 240.017,117.078 240.321,116.046 243.884 C 115.613 245.378,114.696 248.490,114.008 250.800 C 110.646 262.092,110.618 262.007,118.260 263.988 C 143.959 270.649,161.007 262.909,167.128 241.800 C 168.727 236.285,168.774 234.738,168.789 186.684 L 168.804 139.968 167.820 138.984 L 166.836 138.000 154.818 138.000 C 143.333 138.000,142.764 138.036,142.000 138.800 M166.026 140.014 C 167.076 140.576,167.251 231.714,166.214 237.648 C 162.394 259.511,145.031 268.872,120.000 262.562 C 112.963 260.788,112.900 260.696,114.719 254.882 C 115.387 252.747,116.318 249.560,116.789 247.800 C 118.440 241.624,117.694 242.098,124.000 243.215 C 130.889 244.435,136.843 242.483,139.629 238.090 C 142.864 232.989,142.874 232.812,142.818 183.744 C 142.773 144.828,142.827 140.830,143.413 140.244 C 144.187 139.470,164.620 139.262,166.026 140.014 " stroke="none" fill="#847014" fill-rule="evenodd"></path></g></svg>